<mxfile host="app.diagrams.net" agent="Mozilla/5.0 (Windows NT 10.0; Win64; x64) AppleWebKit/537.36 (KHTML, like Gecko) Chrome/134.0.0.0 Safari/537.36" version="26.1.3" pages="2">
  <diagram name="Page-1" id="GqhICxW7YdNsNyVZCw8U">
    <mxGraphModel dx="1050" dy="557" grid="1" gridSize="10" guides="1" tooltips="1" connect="1" arrows="1" fold="1" page="1" pageScale="1" pageWidth="827" pageHeight="1169" math="0" shadow="0">
      <root>
        <mxCell id="0" />
        <mxCell id="1" parent="0" />
        <mxCell id="YKQokfZT1mf1r9xDFJpv-1" value="Controller&lt;div&gt;(ProductsController)&lt;/div&gt;" style="rounded=0;whiteSpace=wrap;html=1;" vertex="1" parent="1">
          <mxGeometry x="340" y="40" width="120" height="60" as="geometry" />
        </mxCell>
        <mxCell id="YKQokfZT1mf1r9xDFJpv-2" value="ProductService" style="rounded=0;whiteSpace=wrap;html=1;" vertex="1" parent="1">
          <mxGeometry x="340" y="130" width="120" height="60" as="geometry" />
        </mxCell>
        <mxCell id="YKQokfZT1mf1r9xDFJpv-3" value="AppDbContext" style="rounded=0;whiteSpace=wrap;html=1;" vertex="1" parent="1">
          <mxGeometry x="340" y="220" width="120" height="60" as="geometry" />
        </mxCell>
        <mxCell id="YKQokfZT1mf1r9xDFJpv-4" value="PostgreSQL (db)" style="rounded=0;whiteSpace=wrap;html=1;" vertex="1" parent="1">
          <mxGeometry x="340" y="310" width="120" height="60" as="geometry" />
        </mxCell>
        <mxCell id="YKQokfZT1mf1r9xDFJpv-5" value="" style="endArrow=classic;html=1;rounded=0;" edge="1" parent="1" target="YKQokfZT1mf1r9xDFJpv-2">
          <mxGeometry width="50" height="50" relative="1" as="geometry">
            <mxPoint x="400" y="100" as="sourcePoint" />
            <mxPoint x="450" y="50" as="targetPoint" />
          </mxGeometry>
        </mxCell>
        <mxCell id="YKQokfZT1mf1r9xDFJpv-9" value="" style="endArrow=classic;html=1;rounded=0;entryX=0.5;entryY=0;entryDx=0;entryDy=0;" edge="1" parent="1" target="YKQokfZT1mf1r9xDFJpv-3">
          <mxGeometry width="50" height="50" relative="1" as="geometry">
            <mxPoint x="400" y="190" as="sourcePoint" />
            <mxPoint x="410" y="140" as="targetPoint" />
          </mxGeometry>
        </mxCell>
        <mxCell id="YKQokfZT1mf1r9xDFJpv-10" value="" style="endArrow=classic;html=1;rounded=0;entryX=0.5;entryY=0;entryDx=0;entryDy=0;" edge="1" parent="1" target="YKQokfZT1mf1r9xDFJpv-4">
          <mxGeometry width="50" height="50" relative="1" as="geometry">
            <mxPoint x="400" y="280" as="sourcePoint" />
            <mxPoint x="410" y="230" as="targetPoint" />
          </mxGeometry>
        </mxCell>
      </root>
    </mxGraphModel>
  </diagram>
  <diagram id="pxdujP0RChY-k1uGH2zo" name="Page-2">
    <mxGraphModel dx="1050" dy="557" grid="1" gridSize="10" guides="1" tooltips="1" connect="1" arrows="1" fold="1" page="1" pageScale="1" pageWidth="827" pageHeight="1169" math="0" shadow="0">
      <root>
        <mxCell id="0" />
        <mxCell id="1" parent="0" />
        <mxCell id="ofV1GsQTSdl7kNNH8wwG-7" style="edgeStyle=orthogonalEdgeStyle;rounded=0;orthogonalLoop=1;jettySize=auto;html=1;entryX=0;entryY=0.5;entryDx=0;entryDy=0;" edge="1" parent="1" source="ofV1GsQTSdl7kNNH8wwG-1" target="ofV1GsQTSdl7kNNH8wwG-2">
          <mxGeometry relative="1" as="geometry" />
        </mxCell>
        <mxCell id="ofV1GsQTSdl7kNNH8wwG-8" style="edgeStyle=orthogonalEdgeStyle;rounded=0;orthogonalLoop=1;jettySize=auto;html=1;entryX=0;entryY=0.5;entryDx=0;entryDy=0;" edge="1" parent="1" source="ofV1GsQTSdl7kNNH8wwG-1" target="ofV1GsQTSdl7kNNH8wwG-4">
          <mxGeometry relative="1" as="geometry" />
        </mxCell>
        <mxCell id="ofV1GsQTSdl7kNNH8wwG-9" style="edgeStyle=orthogonalEdgeStyle;rounded=0;orthogonalLoop=1;jettySize=auto;html=1;" edge="1" parent="1" source="ofV1GsQTSdl7kNNH8wwG-1" target="ofV1GsQTSdl7kNNH8wwG-5">
          <mxGeometry relative="1" as="geometry" />
        </mxCell>
        <mxCell id="ofV1GsQTSdl7kNNH8wwG-10" style="edgeStyle=orthogonalEdgeStyle;rounded=0;orthogonalLoop=1;jettySize=auto;html=1;entryX=0;entryY=0.5;entryDx=0;entryDy=0;" edge="1" parent="1" source="ofV1GsQTSdl7kNNH8wwG-1" target="ofV1GsQTSdl7kNNH8wwG-3">
          <mxGeometry relative="1" as="geometry" />
        </mxCell>
        <mxCell id="ofV1GsQTSdl7kNNH8wwG-1" value="Actor" style="shape=umlActor;verticalLabelPosition=bottom;verticalAlign=top;html=1;outlineConnect=0;" vertex="1" parent="1">
          <mxGeometry x="150" y="260" width="30" height="60" as="geometry" />
        </mxCell>
        <mxCell id="ofV1GsQTSdl7kNNH8wwG-2" value="Vaata tooteid" style="ellipse;whiteSpace=wrap;html=1;" vertex="1" parent="1">
          <mxGeometry x="310" y="80" width="120" height="80" as="geometry" />
        </mxCell>
        <mxCell id="ofV1GsQTSdl7kNNH8wwG-3" value="TÃ¼hista tehing" style="ellipse;whiteSpace=wrap;html=1;" vertex="1" parent="1">
          <mxGeometry x="310" y="410" width="120" height="80" as="geometry" />
        </mxCell>
        <mxCell id="ofV1GsQTSdl7kNNH8wwG-4" value="Lisa ostukorvi" style="ellipse;whiteSpace=wrap;html=1;" vertex="1" parent="1">
          <mxGeometry x="310" y="190" width="120" height="80" as="geometry" />
        </mxCell>
        <mxCell id="ofV1GsQTSdl7kNNH8wwG-5" value="Vormista ost" style="ellipse;whiteSpace=wrap;html=1;" vertex="1" parent="1">
          <mxGeometry x="310" y="300" width="120" height="80" as="geometry" />
        </mxCell>
      </root>
    </mxGraphModel>
  </diagram>
</mxfile>
